<svg width="20" height="20" viewBox="0 0 20 20" fill="none" xmlns="http://www.w3.org/2000/svg">
<path d="M18.3333 4.16669V5.83335C18.3333 7.35835 17.6416 8.18335 16.25 8.30835C16.1166 8.32502 15.975 8.33335 15.8333 8.33335H4.16663C4.02496 8.33335 3.88329 8.32502 3.74996 8.30835C2.35829 8.18335 1.66663 7.35835 1.66663 5.83335V4.16669C1.66663 2.50002 2.49996 1.66669 4.16663 1.66669H15.8333C17.5 1.66669 18.3333 2.50002 18.3333 4.16669Z" fill="#334155"/>
<path d="M4.58333 9.375C4.125 9.375 3.75 9.75 3.75 10.2083V15.8333C3.75 17.5 4.16667 18.3333 6.25 18.3333H13.75C15.8333 18.3333 16.25 17.5 16.25 15.8333V10.2083C16.25 9.75 15.875 9.375 15.4167 9.375H4.58333ZM11.5167 13.125H8.48333C8.14167 13.125 7.85833 12.8417 7.85833 12.5C7.85833 12.1583 8.14167 11.875 8.48333 11.875H11.5167C11.8583 11.875 12.1417 12.1583 12.1417 12.5C12.1417 12.8417 11.8583 13.125 11.5167 13.125Z" fill="#334155"/>
</svg>
