<svg width="20" height="20" viewBox="0 0 20 20" fill="none" xmlns="http://www.w3.org/2000/svg">
<path d="M6.03329 1.66669H4.44996C2.62496 1.66669 1.66663 2.62502 1.66663 4.44169V6.02502C1.66663 7.84169 2.62496 8.80002 4.44163 8.80002H6.02496C7.84163 8.80002 8.79996 7.84169 8.79996 6.02502V4.44169C8.80829 2.62502 7.84996 1.66669 6.03329 1.66669Z" fill="#334155"/>
<path d="M15.5583 1.66669H13.975C12.1583 1.66669 11.2 2.62502 11.2 4.44169V6.02502C11.2 7.84169 12.1583 8.80002 13.975 8.80002H15.5583C17.375 8.80002 18.3333 7.84169 18.3333 6.02502V4.44169C18.3333 2.62502 17.375 1.66669 15.5583 1.66669Z" fill="#334155"/>
<path d="M15.5583 11.1917H13.975C12.1583 11.1917 11.2 12.15 11.2 13.9667V15.55C11.2 17.3667 12.1583 18.325 13.975 18.325H15.5583C17.375 18.325 18.3333 17.3667 18.3333 15.55V13.9667C18.3333 12.15 17.375 11.1917 15.5583 11.1917Z" fill="#334155"/>
<path d="M6.03329 11.1917H4.44996C2.62496 11.1917 1.66663 12.15 1.66663 13.9667V15.55C1.66663 17.375 2.62496 18.3333 4.44163 18.3333H6.02496C7.84163 18.3333 8.79996 17.375 8.79996 15.5583V13.975C8.80829 12.15 7.84996 11.1917 6.03329 11.1917Z" fill="#334155"/>
</svg>
