<svg width="20" height="20" viewBox="0 0 20 20" fill="none" xmlns="http://www.w3.org/2000/svg">
<path d="M10.625 13.2667H11.1667C11.7083 13.2667 12.1583 12.7833 12.1583 12.2C12.1583 11.475 11.9 11.3333 11.475 11.1833L10.6333 10.8917V13.2667H10.625Z" fill="#334155"/>
<path d="M9.97502 1.58333C5.37502 1.59999 1.65002 5.34166 1.66668 9.94166C1.68335 14.5417 5.42501 18.2667 10.025 18.25C14.625 18.2333 18.35 14.4917 18.3333 9.89166C18.3167 5.29166 14.575 1.57499 9.97502 1.58333ZM11.8833 9.99999C12.5333 10.225 13.4083 10.7083 13.4083 12.2C13.4083 13.4833 12.4 14.5167 11.1667 14.5167H10.625V15C10.625 15.3417 10.3417 15.625 10 15.625C9.65835 15.625 9.37502 15.3417 9.37502 15V14.5167H9.07502C7.70835 14.5167 6.60002 13.3667 6.60002 11.95C6.60002 11.6083 6.88335 11.325 7.22502 11.325C7.56668 11.325 7.85002 11.6083 7.85002 11.95C7.85002 12.675 8.40002 13.2667 9.07502 13.2667H9.37502V10.45L8.11668 9.99999C7.46668 9.77499 6.59168 9.29166 6.59168 7.79999C6.59168 6.51666 7.60002 5.48333 8.83335 5.48333H9.37502V4.99999C9.37502 4.65833 9.65835 4.37499 10 4.37499C10.3417 4.37499 10.625 4.65833 10.625 4.99999V5.48333H10.925C12.2917 5.48333 13.4 6.63333 13.4 8.04999C13.4 8.39166 13.1167 8.67499 12.775 8.67499C12.4333 8.67499 12.15 8.39166 12.15 8.04999C12.15 7.32499 11.6 6.73333 10.925 6.73333H10.625V9.54999L11.8833 9.99999Z" fill="#334155"/>
<path d="M7.84998 7.80834C7.84998 8.53334 8.10831 8.675 8.53331 8.825L9.37498 9.11667V6.73334H8.83331C8.29164 6.73334 7.84998 7.21667 7.84998 7.80834Z" fill="#334155"/>
</svg>
