<svg width="20" height="20" viewBox="0 0 20 20" fill="none" xmlns="http://www.w3.org/2000/svg">
<path d="M10.9916 5H5.65829C5.44163 5 5.23329 5.00833 5.03329 5.03333C2.79163 5.225 1.66663 6.55 1.66663 8.99167V12.325C1.66663 15.6583 2.99996 16.3167 5.65829 16.3167H5.99163C6.17496 16.3167 6.41663 16.4417 6.52496 16.5833L7.52496 17.9167C7.96663 18.5083 8.68329 18.5083 9.12496 17.9167L10.125 16.5833C10.25 16.4167 10.45 16.3167 10.6583 16.3167H10.9916C13.4333 16.3167 14.7583 15.2 14.95 12.95C14.975 12.75 14.9833 12.5417 14.9833 12.325V8.99167C14.9833 6.33333 13.65 5 10.9916 5ZM5.41663 11.6667C4.94996 11.6667 4.58329 11.2917 4.58329 10.8333C4.58329 10.375 4.95829 10 5.41663 10C5.87496 10 6.24996 10.375 6.24996 10.8333C6.24996 11.2917 5.87496 11.6667 5.41663 11.6667ZM8.32496 11.6667C7.85829 11.6667 7.49163 11.2917 7.49163 10.8333C7.49163 10.375 7.86663 10 8.32496 10C8.78329 10 9.15829 10.375 9.15829 10.8333C9.15829 11.2917 8.79163 11.6667 8.32496 11.6667ZM11.2416 11.6667C10.775 11.6667 10.4083 11.2917 10.4083 10.8333C10.4083 10.375 10.7833 10 11.2416 10C11.7 10 12.075 10.375 12.075 10.8333C12.075 11.2917 11.7 11.6667 11.2416 11.6667Z" fill="#334155"/>
<path d="M18.3167 5.65832V8.99166C18.3167 10.6583 17.8 11.7917 16.7667 12.4167C16.5167 12.5667 16.225 12.3667 16.225 12.075L16.2334 8.99166C16.2334 5.65832 14.325 3.74999 10.9917 3.74999L5.91671 3.75832C5.62504 3.75832 5.42504 3.46666 5.57504 3.21666C6.20004 2.18332 7.33338 1.66666 8.99171 1.66666H14.325C16.9834 1.66666 18.3167 2.99999 18.3167 5.65832Z" fill="#334155"/>
</svg>
