<svg width="20" height="20" viewBox="0 0 20 20" fill="none" xmlns="http://www.w3.org/2000/svg">
<path d="M13.3333 3.54166C13.3333 4.57499 12.4916 5.41666 11.4583 5.41666H8.54163C8.02496 5.41666 7.55829 5.20832 7.21663 4.86666C6.87496 4.52499 6.66663 4.05832 6.66663 3.54166C6.66663 2.50832 7.50829 1.66666 8.54163 1.66666H11.4583C11.975 1.66666 12.4416 1.87499 12.7833 2.21666C13.125 2.55832 13.3333 3.02499 13.3333 3.54166Z" fill="#334155"/>
<path d="M15.6917 4.19167C15.5 4.03333 15.2834 3.90833 15.05 3.81667C14.8084 3.725 14.5667 3.91667 14.5167 4.16667C14.2334 5.59167 12.975 6.66667 11.4584 6.66667H8.54171C7.70837 6.66667 6.92504 6.34167 6.33337 5.75C5.90004 5.31667 5.60004 4.76667 5.48337 4.175C5.43337 3.925 5.18337 3.725 4.94171 3.825C3.97504 4.21667 3.33337 5.1 3.33337 6.875V15C3.33337 17.5 4.82504 18.3333 6.66671 18.3333H13.3334C15.175 18.3333 16.6667 17.5 16.6667 15V6.875C16.6667 5.51667 16.2917 4.68333 15.6917 4.19167ZM6.66671 10.2083H10C10.3417 10.2083 10.625 10.4917 10.625 10.8333C10.625 11.175 10.3417 11.4583 10 11.4583H6.66671C6.32504 11.4583 6.04171 11.175 6.04171 10.8333C6.04171 10.4917 6.32504 10.2083 6.66671 10.2083ZM13.3334 14.7917H6.66671C6.32504 14.7917 6.04171 14.5083 6.04171 14.1667C6.04171 13.825 6.32504 13.5417 6.66671 13.5417H13.3334C13.675 13.5417 13.9584 13.825 13.9584 14.1667C13.9584 14.5083 13.675 14.7917 13.3334 14.7917Z" fill="#334155"/>
</svg>
