<svg width="17" height="18" viewBox="0 0 17 18" fill="none" xmlns="http://www.w3.org/2000/svg">
<path d="M12.5416 17.75C13.347 17.75 14 17.0971 14 16.2917C14 15.4862 13.347 14.8333 12.5416 14.8333C11.7362 14.8333 11.0833 15.4862 11.0833 16.2917C11.0833 17.0971 11.7362 17.75 12.5416 17.75Z" fill="#334155"/>
<path d="M5.87496 17.75C6.68038 17.75 7.33329 17.0971 7.33329 16.2917C7.33329 15.4862 6.68038 14.8333 5.87496 14.8333C5.06954 14.8333 4.41663 15.4862 4.41663 16.2917C4.41663 17.0971 5.06954 17.75 5.87496 17.75Z" fill="#334155"/>
<path d="M3.03329 2.28332L2.86663 4.32499C2.83329 4.71666 3.14163 5.04166 3.53329 5.04166H16.2916C16.6416 5.04166 16.9333 4.77499 16.9583 4.42499C17.0666 2.94999 15.9416 1.74999 14.4666 1.74999H4.22496C4.14163 1.38332 3.97496 1.03332 3.71663 0.741656C3.29996 0.29999 2.71663 0.0416565 2.11663 0.0416565H0.666626C0.324959 0.0416565 0.041626 0.32499 0.041626 0.666656C0.041626 1.00832 0.324959 1.29166 0.666626 1.29166H2.11663C2.37496 1.29166 2.61663 1.39999 2.79163 1.58332C2.96663 1.77499 3.04996 2.02499 3.03329 2.28332Z" fill="#334155"/>
<path d="M16.0916 6.29166H3.30829C2.95829 6.29166 2.67496 6.55832 2.64163 6.89999L2.34163 10.525C2.22496 11.95 3.34163 13.1667 4.76663 13.1667H14.0333C15.2833 13.1667 16.3833 12.1417 16.475 10.8917L16.75 6.99999C16.7833 6.61666 16.4833 6.29166 16.0916 6.29166Z" fill="#334155"/>
</svg>
