<svg width="20" height="20" viewBox="0 0 20 20" fill="none" xmlns="http://www.w3.org/2000/svg">
<path d="M16.2584 4.87502L11.3083 2.01669C10.5 1.55002 9.50002 1.55002 8.68335 2.01669L3.74168 4.87502C2.93335 5.34169 2.43335 6.20835 2.43335 7.15002V12.85C2.43335 13.7834 2.93335 14.65 3.74168 15.125L8.69168 17.9834C9.50002 18.45 10.5 18.45 11.3167 17.9834L16.2667 15.125C17.075 14.6584 17.575 13.7917 17.575 12.85V7.15002C17.5667 6.20835 17.0667 5.35002 16.2584 4.87502ZM10 6.11669C11.075 6.11669 11.9417 6.98335 11.9417 8.05835C11.9417 9.13335 11.075 10 10 10C8.92502 10 8.05835 9.13335 8.05835 8.05835C8.05835 6.99169 8.92502 6.11669 10 6.11669ZM12.2333 13.8834H7.76668C7.09168 13.8834 6.70002 13.1334 7.07502 12.575C7.64168 11.7334 8.74168 11.1667 10 11.1667C11.2584 11.1667 12.3583 11.7334 12.925 12.575C13.3 13.125 12.9 13.8834 12.2333 13.8834Z" fill="#334155"/>
</svg>
