<svg width="40" height="40" viewBox="0 0 40 40" fill="none" xmlns="http://www.w3.org/2000/svg">
<rect x="1.5" y="1.5" width="37" height="37" rx="18.5" fill="#25B3E8"/>
<rect x="1.5" y="1.5" width="37" height="37" rx="18.5" stroke="white" stroke-width="3"/>
<path d="M24.9988 15.0013C24.4905 15.0013 24.0238 14.7096 23.7905 14.2596L23.1905 13.0513C22.8072 12.293 21.8072 11.668 20.9572 11.668H19.0488C18.1905 11.668 17.1905 12.293 16.8072 13.0513L16.2072 14.2596C15.9738 14.7096 15.5072 15.0013 14.9988 15.0013C13.1905 15.0013 11.7572 16.5263 11.8738 18.3263L12.3072 25.2096C12.4072 26.9263 13.3322 28.3346 15.6322 28.3346H24.3655C26.6655 28.3346 27.5822 26.9263 27.6905 25.2096L28.1238 18.3263C28.2405 16.5263 26.8072 15.0013 24.9988 15.0013ZM18.7488 16.043H21.2488C21.5905 16.043 21.8738 16.3263 21.8738 16.668C21.8738 17.0096 21.5905 17.293 21.2488 17.293H18.7488C18.4072 17.293 18.1238 17.0096 18.1238 16.668C18.1238 16.3263 18.4072 16.043 18.7488 16.043ZM19.9988 25.1013C18.4488 25.1013 17.1822 23.843 17.1822 22.2846C17.1822 20.7263 18.4405 19.468 19.9988 19.468C21.5572 19.468 22.8155 20.7263 22.8155 22.2846C22.8155 23.843 21.5488 25.1013 19.9988 25.1013Z" fill="white"/>
</svg>
