<svg width="33" height="34" viewBox="0 0 33 34" fill="none" xmlns="http://www.w3.org/2000/svg">
<rect y="0.5" width="33" height="33" rx="16.5" fill="#334155"/>
<path d="M20 9H14C11.375 9 10.25 10.5 10.25 12.75V20.25C10.25 22.5 11.375 24 14 24H20C22.625 24 23.75 22.5 23.75 20.25V12.75C23.75 10.5 22.625 9 20 9ZM14 16.6875H17C17.3075 16.6875 17.5625 16.9425 17.5625 17.25C17.5625 17.5575 17.3075 17.8125 17 17.8125H14C13.6925 17.8125 13.4375 17.5575 13.4375 17.25C13.4375 16.9425 13.6925 16.6875 14 16.6875ZM20 20.8125H14C13.6925 20.8125 13.4375 20.5575 13.4375 20.25C13.4375 19.9425 13.6925 19.6875 14 19.6875H20C20.3075 19.6875 20.5625 19.9425 20.5625 20.25C20.5625 20.5575 20.3075 20.8125 20 20.8125ZM21.875 14.4375H20.375C19.235 14.4375 18.3125 13.515 18.3125 12.375V10.875C18.3125 10.5675 18.5675 10.3125 18.875 10.3125C19.1825 10.3125 19.4375 10.5675 19.4375 10.875V12.375C19.4375 12.8925 19.8575 13.3125 20.375 13.3125H21.875C22.1825 13.3125 22.4375 13.5675 22.4375 13.875C22.4375 14.1825 22.1825 14.4375 21.875 14.4375Z" fill="white"/>
</svg>
