<svg width="80" height="80" viewBox="0 0 80 80" fill="none" xmlns="http://www.w3.org/2000/svg">
<rect width="80" height="80" rx="40" fill="#15AA2C" fill-opacity="0.1"/>
<path d="M41.875 49.8H43.5C45.125 49.8 46.475 48.35 46.475 46.6C46.475 44.425 45.7 44 44.425 43.55L41.9 42.675V49.8H41.875Z" fill="#15AA2C"/>
<path d="M39.925 14.75C26.125 14.8 14.95 26.025 15 39.825C15.05 53.625 26.275 64.8 40.075 64.75C53.875 64.7 65.05 53.475 65 39.675C64.95 25.875 53.725 14.725 39.925 14.75ZM45.65 40C47.6 40.675 50.225 42.125 50.225 46.6C50.225 50.45 47.2 53.55 43.5 53.55H41.875V55C41.875 56.025 41.025 56.875 40 56.875C38.975 56.875 38.125 56.025 38.125 55V53.55H37.225C33.125 53.55 29.8 50.1 29.8 45.85C29.8 44.825 30.65 43.975 31.675 43.975C32.7 43.975 33.55 44.825 33.55 45.85C33.55 48.025 35.2 49.8 37.225 49.8H38.125V41.35L34.35 40C32.4 39.325 29.775 37.875 29.775 33.4C29.775 29.55 32.8 26.45 36.5 26.45H38.125V25C38.125 23.975 38.975 23.125 40 23.125C41.025 23.125 41.875 23.975 41.875 25V26.45H42.775C46.875 26.45 50.2 29.9 50.2 34.15C50.2 35.175 49.35 36.025 48.325 36.025C47.3 36.025 46.45 35.175 46.45 34.15C46.45 31.975 44.8 30.2 42.775 30.2H41.875V38.65L45.65 40Z" fill="#15AA2C"/>
<path d="M33.55 33.425C33.55 35.6 34.325 36.025 35.6 36.475L38.125 37.35V30.2H36.5C34.875 30.2 33.55 31.65 33.55 33.425Z" fill="#15AA2C"/>
</svg>
