<svg width="300" height="200" viewBox="0 0 300 200" fill="none" xmlns="http://www.w3.org/2000/svg">
<path d="M79.3052 34.6733L25 71L78.4903 150.963L132.796 114.637L79.3052 34.6733Z" fill="#F5F5F5"/>
<path d="M104.729 110.856L104.115 114.67L77.1172 110.779L77.7319 106.965L104.729 110.856Z" fill="#E0E0E0"/>
<path d="M91.1339 97.25L95.0059 97.8066L90.7128 124.388L86.8359 123.826L91.1339 97.25Z" fill="#E0E0E0"/>
<path d="M66.2908 63.4655C66.3295 63.5188 60.8894 67.2311 54.1376 71.7419C47.3858 76.2528 41.8827 79.8731 41.844 79.8151C41.8052 79.757 47.2454 76.0495 53.9972 71.5338C60.749 67.0181 66.2279 63.4075 66.2908 63.4655Z" fill="#E0E0E0"/>
<path d="M86.2408 58.4535C86.2795 58.5116 77.2288 64.6294 66.029 72.1217C54.8292 79.614 45.701 85.6398 45.6719 85.5866C45.6429 85.5333 54.6743 79.4059 65.8886 71.9136C77.1029 64.4213 86.2021 58.3955 86.2408 58.4535Z" fill="#E0E0E0"/>
<path d="M90.2486 64.434C90.2874 64.4921 81.2366 70.6147 70.0368 78.107C58.837 85.5993 49.7088 91.6251 49.6798 91.567C49.6507 91.509 58.6918 85.3912 69.8964 77.894C81.101 70.3969 90.2099 64.3759 90.2486 64.434Z" fill="#E0E0E0"/>
<path d="M94.2508 70.4223C94.2895 70.4804 85.2387 76.603 74.0389 84.0905C62.8392 91.5779 53.7109 97.6134 53.7109 97.5553C53.7109 97.4973 62.7182 91.3746 73.9228 83.8823C85.1274 76.39 94.2121 70.3642 94.2508 70.4223Z" fill="#E0E0E0"/>
<path d="M98.236 76.4106C98.2747 76.4687 89.2239 82.5864 78.0241 90.0787C66.8244 97.571 57.6961 103.597 57.6719 103.539C57.6477 103.481 66.6937 97.3629 77.908 89.8706C89.1222 82.3783 98.236 76.3525 98.236 76.4106Z" fill="#E0E0E0"/>
<path d="M229.608 86.9992L184 117.508L228.922 184.662L274.53 154.154L229.608 86.9992Z" fill="#F5F5F5"/>
<path d="M250.962 150.989L250.444 154.193L227.773 150.926L228.291 147.727L250.962 150.989Z" fill="#E0E0E0"/>
<path d="M239.543 139.559L242.796 140.028L239.19 162.35L235.938 161.886L239.543 139.559Z" fill="#E0E0E0"/>
<path d="M218.821 106.364C218.859 106.422 214.295 109.544 208.628 113.339C202.96 117.133 198.328 120.158 198.289 120.115C198.251 120.071 202.815 116.935 208.487 113.14C214.16 109.346 218.782 106.306 218.821 106.364Z" fill="#E0E0E0"/>
<path d="M235.592 102.153C235.63 102.211 228.031 107.361 218.652 113.653C209.272 119.945 201.586 124.998 201.547 124.94C201.508 124.881 209.073 119.732 218.487 113.44C227.901 107.148 235.553 102.095 235.592 102.153Z" fill="#E0E0E0"/>
<path d="M238.951 107.18C238.99 107.238 231.396 112.383 222.011 118.675C212.626 124.967 204.945 130.025 204.906 129.967C204.868 129.908 212.462 124.759 221.846 118.467C231.231 112.175 238.912 107.146 238.951 107.18Z" fill="#E0E0E0"/>
<path d="M242.318 112.204C242.357 112.262 234.763 117.411 225.378 123.703C215.993 129.995 208.312 135.048 208.274 134.99C208.235 134.932 215.829 129.787 225.238 123.495C234.647 117.203 242.279 112.146 242.318 112.204Z" fill="#E0E0E0"/>
<path d="M245.678 117.235C245.717 117.293 238.118 122.443 228.738 128.73C219.358 135.017 211.648 140.06 211.61 140.022C211.571 139.983 219.165 134.819 228.55 128.522C237.934 122.225 245.64 117.177 245.678 117.235Z" fill="#E0E0E0"/>
<path d="M188.74 37.616L138.977 11L99.7853 84.2756L149.549 110.892L188.74 37.616Z" fill="#F5F5F5"/>
<path d="M141.03 87.9661L137.874 89.0454L129.859 66.8928L133.015 65.8086L141.03 87.9661Z" fill="#E0E0E0"/>
<path d="M145.87 72.0703L147.022 75.2502L125.019 82.7861L123.867 79.6062L145.87 72.0703Z" fill="#E0E0E0"/>
<path d="M161.506 39.3867C161.467 39.4593 156.424 36.836 150.234 33.5303C144.043 30.2246 139.063 27.4803 139.102 27.4077C139.141 27.3351 144.189 29.9584 150.379 33.2641C156.569 36.5698 161.545 39.3093 161.506 39.3867Z" fill="#E0E0E0"/>
<path d="M173.453 52.5672C173.414 52.6398 165.06 48.2451 154.794 42.7565C144.529 37.268 136.243 32.7571 136.281 32.6845C136.32 32.6119 144.669 37.0018 154.935 42.4952C165.2 47.9886 173.491 52.4946 173.453 52.5672Z" fill="#E0E0E0"/>
<path d="M170.515 58.0516C170.476 58.1242 162.123 53.7343 151.857 48.2457C141.591 42.7572 133.305 38.2415 133.344 38.1689C133.383 38.0963 141.732 42.491 151.997 47.9795C162.263 53.4681 170.554 57.979 170.515 58.0516Z" fill="#E0E0E0"/>
<path d="M167.585 63.5354C167.547 63.608 159.193 59.2181 148.927 53.7296C138.662 48.241 130.375 43.7446 130.414 43.6575C130.453 43.5704 138.802 47.9748 149.068 53.4634C159.333 58.9519 167.624 63.4628 167.585 63.5354Z" fill="#E0E0E0"/>
<path d="M164.656 69.0194C164.617 69.092 156.263 64.7021 145.998 59.2136C135.732 53.725 127.441 49.2141 127.485 49.1415C127.528 49.0689 135.872 53.4588 146.138 58.9474C156.404 64.4359 164.694 68.9468 164.656 69.0194Z" fill="#E0E0E0"/>
<path d="M117.594 89.0188L100.461 177.01L98.2344 188.529L212.458 187.977C217.589 187.953 222.138 183.399 223.779 176.633L244.039 93.5636C245.293 88.4284 242.544 83.085 238.652 83.0898L123.015 83.2108C120.498 83.206 118.243 85.5873 117.594 89.0188Z" fill="#25B3E8"/>
<g opacity="0.5">
<path d="M117.594 89.0188L100.461 177.01L98.2344 188.529L212.458 187.977C217.589 187.953 222.138 183.399 223.779 176.633L244.039 93.5636C245.293 88.4284 242.544 83.085 238.652 83.0898L123.015 83.2108C120.498 83.206 118.243 85.5873 117.594 89.0188Z" fill="black" fill-opacity="0.2"/>
</g>
<path d="M201.517 171.036L189.417 73.5537C188.933 69.5607 185.744 66.5793 181.983 66.5938L155.46 66.6761C154.474 66.6872 153.501 66.8989 152.6 67.2983C151.699 67.6977 150.888 68.2765 150.218 68.9993L137.634 82.3916L63.8725 82.7884C59.3665 82.8126 55.9011 87.0815 56.4964 91.8731L67.73 181.97C68.214 185.958 71.4036 188.934 75.1546 188.93L203.729 188.673C218.046 188.968 219.416 184.743 219.416 184.743C202.979 188.378 201.517 171.06 201.517 171.036Z" fill="#25B3E8"/>
<g opacity="0.5">
<path d="M146.076 151.543L141.74 156.199L108.344 126.152L112.68 121.496L146.076 151.543Z" fill="white"/>
<path d="M139.924 120.465L144.716 124.777L114.5 157.229L109.703 152.917L139.924 120.465Z" fill="white"/>
</g>
</svg>
