<svg width="80" height="80" viewBox="0 0 80 80" fill="none" xmlns="http://www.w3.org/2000/svg">
<rect width="80" height="80" rx="40" fill="#FF6B00" fill-opacity="0.1"/>
<path d="M58.1 23.95H57.1L48.65 15.5C47.975 14.825 46.875 14.825 46.175 15.5C45.5 16.175 45.5 17.275 46.175 17.975L52.15 23.95H27.85L33.825 17.975C34.5 17.3 34.5 16.2 33.825 15.5C33.15 14.825 32.05 14.825 31.35 15.5L22.925 23.95H21.925C19.675 23.95 15 23.95 15 30.35C15 32.775 15.5 34.375 16.55 35.425C17.15 36.05 17.875 36.375 18.65 36.55C19.375 36.725 20.15 36.75 20.9 36.75H59.1C59.875 36.75 60.6 36.7 61.3 36.55C63.4 36.05 65 34.55 65 30.35C65 23.95 60.325 23.95 58.1 23.95Z" fill="#FF6B00"/>
<path d="M57.725 40H22.275C20.725 40 19.55 41.375 19.8 42.9L21.9 55.75C22.6 60.05 24.475 65 32.8 65H46.825C55.25 65 56.75 60.775 57.65 56.05L60.175 42.975C60.475 41.425 59.3 40 57.725 40ZM47.2 50.125L39.075 57.625C38.725 57.95 38.275 58.125 37.8 58.125C37.325 58.125 36.85 57.95 36.475 57.575L32.725 53.825C32 53.1 32 51.9 32.725 51.175C33.475 50.45 34.65 50.45 35.4 51.175L37.875 53.65L44.675 47.375C45.425 46.675 46.625 46.725 47.325 47.475C48.025 48.25 47.975 49.425 47.2 50.125Z" fill="#FF6B00"/>
</svg>
