<svg width="20" height="21" viewBox="0 0 20 21" fill="none" xmlns="http://www.w3.org/2000/svg">
<path d="M18.4382 11.7298C18.4368 13.1384 17.8766 14.4888 16.8806 15.4848C15.8847 16.4807 14.5343 17.0409 13.1257 17.0423H6.25074C6.0021 17.0423 5.76364 16.9436 5.58783 16.7678C5.41201 16.5919 5.31324 16.3535 5.31324 16.1048C5.31324 15.8562 5.41201 15.6178 5.58783 15.4419C5.76364 15.2661 6.0021 15.1673 6.25074 15.1673H13.1257C14.0374 15.1673 14.9118 14.8052 15.5564 14.1605C16.2011 13.5159 16.5632 12.6415 16.5632 11.7298C16.5632 10.8182 16.2011 9.94383 15.5564 9.29917C14.9118 8.65451 14.0374 8.29235 13.1257 8.29235H4.76636L6.91636 10.4416C7.09248 10.6177 7.19143 10.8566 7.19143 11.1056C7.19143 11.3547 7.09248 11.5936 6.91636 11.7697C6.74024 11.9458 6.50137 12.0448 6.2523 12.0448C6.00323 12.0448 5.76436 11.9458 5.58824 11.7697L1.83824 8.01969C1.75084 7.9326 1.68149 7.8291 1.63417 7.71515C1.58686 7.60119 1.5625 7.47902 1.5625 7.35563C1.5625 7.23224 1.58686 7.11007 1.63417 6.99611C1.68149 6.88216 1.75084 6.77866 1.83824 6.69157L5.58824 2.94157C5.76436 2.76545 6.00323 2.6665 6.2523 2.6665C6.50137 2.6665 6.74024 2.76545 6.91636 2.94157C7.09248 3.11769 7.19143 3.35656 7.19143 3.60563C7.19143 3.8547 7.09248 4.09357 6.91636 4.26969L4.76636 6.41735H13.1257C14.5342 6.419 15.8845 6.97924 16.8804 7.97517C17.8763 8.9711 18.4366 10.3214 18.4382 11.7298Z" fill="white"/>
</svg>
