<svg id="Layer_1" data-name="Layer 1" xmlns="http://www.w3.org/2000/svg" xmlns:xlink="http://www.w3.org/1999/xlink" viewBox="0 0 900 900"><defs><style>.cls-1{fill:none;}.cls-2{clip-path:url(#clip-path);}.cls-3{fill:#fff;}.cls-4{clip-path:url(#clip-path-2);}.cls-5{fill:url(#linear-gradient);}.cls-6{clip-path:url(#clip-path-3);}.cls-7{fill:url(#linear-gradient-2);}.cls-8{clip-path:url(#clip-path-4);}.cls-9{fill:url(#linear-gradient-3);}.cls-10{clip-path:url(#clip-path-5);}.cls-11{fill:url(#linear-gradient-4);}.cls-12{clip-path:url(#clip-path-6);}.cls-13{clip-path:url(#clip-path-7);}.cls-14{clip-path:url(#clip-path-8);}.cls-15{fill:url(#linear-gradient-7);}.cls-16{clip-path:url(#clip-path-9);}.cls-17{clip-path:url(#clip-path-10);}.cls-18{clip-path:url(#clip-path-11);}.cls-19{fill:url(#linear-gradient-10);}.cls-20{clip-path:url(#clip-path-12);}.cls-21{fill:url(#linear-gradient-11);}.cls-22{clip-path:url(#clip-path-13);}.cls-23{fill:url(#linear-gradient-12);}.cls-24{clip-path:url(#clip-path-14);}.cls-25{fill:url(#linear-gradient-13);}.cls-26{clip-path:url(#clip-path-15);}.cls-27{fill:url(#linear-gradient-14);}.cls-28{clip-path:url(#clip-path-16);}.cls-29{fill:url(#linear-gradient-15);}</style><clipPath id="clip-path"><rect class="cls-1" width="900" height="900"/></clipPath><clipPath id="clip-path-2"><path class="cls-1" d="M227.84,572.19A34.48,34.48,0,0,0,214.56,585a35.59,35.59,0,0,0-4.63,18.22q0,15.84,10.18,26t26.16,10.13a39.24,39.24,0,0,0,15.43-2.86q6.75-2.87,14.35-10.28L267.2,617a37.31,37.31,0,0,1-10.33,7.72,25.05,25.05,0,0,1-10.38,2.12,24.49,24.49,0,0,1-12.11-3,21.42,21.42,0,0,1-8.43-8.35,24.56,24.56,0,0,1-3-12.18A23,23,0,0,1,246.25,580q11.64,0,20.95,9.84l9.13-8.7a39.51,39.51,0,0,0-29.87-13.77,37.49,37.49,0,0,0-18.62,4.85"/></clipPath><linearGradient id="linear-gradient" y1="900" x2="1" y2="900" gradientTransform="matrix(587.06, 0, 0, -587.06, 130.48, 528956.24)" gradientUnits="userSpaceOnUse"><stop offset="0" stop-color="#00aeef"/><stop offset="1" stop-color="#bf27bb"/></linearGradient><clipPath id="clip-path-3"><path class="cls-1" d="M301.61,623a15.23,15.23,0,0,1-4-10.82,15,15,0,0,1,3.91-10.69,12.84,12.84,0,0,1,9.8-4.17,13.28,13.28,0,0,1,10,4.1,14.82,14.82,0,0,1,3.95,10.72,15.27,15.27,0,0,1-3.95,10.93,13.1,13.1,0,0,1-9.94,4.17,12.9,12.9,0,0,1-9.78-4.24m-9.7-29.92q-6.95,7.5-6.94,19.25,0,11.31,7.17,18.94a22.56,22.56,0,0,0,17,7.62,21.13,21.13,0,0,0,8.12-1.56,25.36,25.36,0,0,0,7.47-5.11v5.36h12.72v-50.7H324.72v5.59a23.66,23.66,0,0,0-7.4-5.17,21.44,21.44,0,0,0-8.57-1.72,22.07,22.07,0,0,0-16.84,7.5"/></clipPath><linearGradient id="linear-gradient-2" y1="900" x2="1" y2="900" gradientTransform="matrix(587.06, 0, 0, -587.06, 130.48, 528965.16)" xlink:href="#linear-gradient"/><clipPath id="clip-path-4"><path class="cls-1" d="M363.88,587.57a13.53,13.53,0,0,0-4.7,5.73v-6.39H348.27v50.7H360.9v-20.5l0-2.47q0-10.62,2-14.26c1.35-2.42,3-3.64,5-3.64a8.8,8.8,0,0,1,3.68,1.12l4-11a11.86,11.86,0,0,0-5.17-1.3,11.32,11.32,0,0,0-6.43,2"/></clipPath><linearGradient id="linear-gradient-3" y1="900" x2="1" y2="900" gradientTransform="matrix(587.06, 0, 0, -587.06, 130.48, 528964.51)" xlink:href="#linear-gradient"/><clipPath id="clip-path-5"><path class="cls-1" d="M397.13,581.65h4.42q12.17,0,17.66,5.41,6.1,6,6.11,16.93a25.4,25.4,0,0,1-2.56,11.94,15.55,15.55,0,0,1-6.6,6.91q-4,2.05-13,2h-6.06Zm-13-12.58v68.54h15.69q13.32,0,18.72-1.68a25.66,25.66,0,0,0,10-6,30.34,30.34,0,0,0,7.27-11,42.2,42.2,0,0,0-2.08-34,28.92,28.92,0,0,0-12-12.05q-7.26-3.71-22.21-3.7Z"/></clipPath><linearGradient id="linear-gradient-4" y1="900" x2="1" y2="900" xlink:href="#linear-gradient"/><clipPath id="clip-path-6"><path class="cls-1" d="M464.61,623a14.91,14.91,0,0,1-3.9-10.72,14.63,14.63,0,0,1,3.94-10.55,14,14,0,0,1,19.84-.05,16.34,16.34,0,0,1-.07,21.27,13.18,13.18,0,0,1-9.94,4.15,13,13,0,0,1-9.87-4.1m-7.86-30.48a26.87,26.87,0,0,0-1,38.66,25.28,25.28,0,0,0,18.61,7.76,26.88,26.88,0,0,0,13.56-3.52,25.81,25.81,0,0,0,9.72-9.76,26.73,26.73,0,0,0,3.56-13.43,26.21,26.21,0,0,0-3.54-13.28,25.89,25.89,0,0,0-9.86-9.73,26.75,26.75,0,0,0-13.49-3.59,25.47,25.47,0,0,0-17.56,6.89"/></clipPath><clipPath id="clip-path-7"><path class="cls-1" d="M524,589.15A26.46,26.46,0,0,0,517.65,631q7.58,7.93,20.94,7.93,14.86,0,23-10.61l-10-6.87q-4.76,5.84-13.29,5.83-6.91,0-11.15-4.1a14,14,0,0,1-4.25-10.56,14.51,14.51,0,0,1,4.41-10.91q4.41-4.26,11.55-4.26a17.65,17.65,0,0,1,6.83,1.22,17.88,17.88,0,0,1,5.9,4.33l10.59-5.83a25.84,25.84,0,0,0-9.83-8.55,30,30,0,0,0-13.56-3A30.69,30.69,0,0,0,524,589.15"/></clipPath><clipPath id="clip-path-8"><polygon class="cls-1" points="576.13 568.23 576.13 586.91 569.61 586.91 569.61 597.86 576.13 597.86 576.13 637.61 588.85 637.61 588.85 597.86 596.4 597.86 596.4 586.91 588.85 586.91 588.85 568.23 576.13 568.23"/></clipPath><linearGradient id="linear-gradient-7" y1="900" x2="1" y2="900" gradientTransform="matrix(587.06, 0, 0, -587.06, 130.48, 528955.82)" xlink:href="#linear-gradient"/><clipPath id="clip-path-9"><path class="cls-1" d="M618.26,623a14.91,14.91,0,0,1-3.9-10.72,14.63,14.63,0,0,1,3.94-10.55,14,14,0,0,1,19.84-.05,16.34,16.34,0,0,1-.07,21.27,14,14,0,0,1-19.81.05M610.4,592.5a26.87,26.87,0,0,0-1,38.66A25.28,25.28,0,0,0,628,638.92a26.88,26.88,0,0,0,13.56-3.52,25.81,25.81,0,0,0,9.72-9.76,26.73,26.73,0,0,0,3.56-13.43,26.21,26.21,0,0,0-3.54-13.28,25.93,25.93,0,0,0-9.85-9.73A26.8,26.8,0,0,0,628,585.61a25.48,25.48,0,0,0-17.57,6.89"/></clipPath><clipPath id="clip-path-10"><path class="cls-1" d="M678.83,587.57a13.55,13.55,0,0,0-4.71,5.73v-6.39h-10.9v50.7h12.62v-20.5l0-2.47q0-10.62,2-14.26c1.35-2.42,3-3.64,5-3.64a8.84,8.84,0,0,1,3.68,1.12l4-11a11.89,11.89,0,0,0-5.17-1.3,11.3,11.3,0,0,0-6.43,2"/></clipPath><clipPath id="clip-path-11"><path class="cls-1" d="M400.08,264.56h0l-.24.11c-1.68.68-4.95,2.18-4.94,2.22l-7.63,3.42,5.22,14.35,4.26-2s0,0,0,0c.77-.39,1.56-.77,2.35-1.15l1.44-.67c15-6.92,33.23-11.6,49.45-11.6a112.52,112.52,0,0,1,54.7,14.22c.22.12.46.23.67.36,1.12.63,2.23,1.28,3.32,1.95v0a117.68,117.68,0,0,1,14,10.17h0a111.74,111.74,0,0,1,8.87,8.3c-3.69,4.78-12.93,12-18.2,15.85-13.84,9.84-18.23,9.53-18.23,9.53l-11.15,5-2.64,17.61,12-4.71c1.5-.55,3-1.12,4.47-1.73l-.09.12a128.88,128.88,0,0,0,53.72-40.64l.5-.64-.12-.16.12-.15h-.24l-.26-.33a133.37,133.37,0,0,0-9.2-10.65,130.11,130.11,0,0,0-15.77-13.89c-.12-.09-.26-.17-.37-.26-3.8-3.31-18.76-11.5-19.23-11.73A126.71,126.71,0,0,0,450,254.13c-16.48,0-34.43,4.16-49.92,10.43"/></clipPath><linearGradient id="linear-gradient-10" y1="900" x2="1" y2="900" gradientTransform="matrix(164.64, 0, 0, -164.64, 387.27, 148475.41)" gradientUnits="userSpaceOnUse"><stop offset="0" stop-color="#bf27bb"/><stop offset="1" stop-color="#00aeef"/></linearGradient><clipPath id="clip-path-12"><path class="cls-1" d="M436.74,304.69A13.27,13.27,0,1,1,450,318a13.29,13.29,0,0,1-13.27-13.27m-14.11,0A27.37,27.37,0,1,0,450,277.32a27.42,27.42,0,0,0-27.38,27.37"/></clipPath><linearGradient id="linear-gradient-11" x1="0" y1="900" x2="1" y2="900" gradientTransform="matrix(54.75, 0, 0, -54.75, 422.63, 49577.7)" xlink:href="#linear-gradient-10"/><clipPath id="clip-path-13"><path class="cls-1" d="M317.92,445.61A2.42,2.42,0,0,0,315.6,448l0,5.74a2.36,2.36,0,0,0,2.16,2.38l18.44,2.3,0-7.47,0-7.46Zm227.94-4.86a2.29,2.29,0,0,0-2.3,2.3v15.81a2.3,2.3,0,0,0,2.3,2.3H570a10.21,10.21,0,1,0,0-20.41ZM479.64,433a5.44,5.44,0,0,0-5.43,5.43v25a5.43,5.43,0,0,0,5.43,5.43h41a17.95,17.95,0,1,0,0-35.89Zm-62.09-1.63v39.15a4.56,4.56,0,0,0,9.11,0V431.38a4.56,4.56,0,0,0-9.11,0m42.12-5.9v50.38a4.57,4.57,0,1,0,9.1,0V425.48a4.57,4.57,0,1,0-9.1,0m-117.06-5.73v62.4a4.55,4.55,0,1,0,9.1,0v-62.4a4.55,4.55,0,0,0-9.1,0m47.23,4.51v53.39a10.65,10.65,0,1,0,21.3,0V424.26a10.65,10.65,0,0,0-21.3,0m42.77,0v53.39a10.66,10.66,0,0,0,21.32,0V424.26a10.66,10.66,0,0,0-21.32,0m-58.32-14.15v82c0,3.3,2,6,4.55,6s4.55-2.68,4.55-6v-82c0-3.32-2-6-4.55-6s-4.55,2.68-4.55,6m-16-14.49V506.28a4.56,4.56,0,1,0,9.12,0V395.62a4.56,4.56,0,0,0-9.12,0"/></clipPath><linearGradient id="linear-gradient-12" x1="0" y1="900" x2="1" y2="900" gradientTransform="matrix(264.61, 0, 0, -264.61, 315.57, 238604.06)" xlink:href="#linear-gradient-10"/><clipPath id="clip-path-14"><path class="cls-1" d="M357.78,293.36A129.28,129.28,0,0,0,348.59,304l-.5.64.5.64a128.67,128.67,0,0,0,60.84,43.28l.29.1c1.91.64,3.84,1.22,5.79,1.77,12.78,3.73,26.44,4.28,26.61,4.42,2.67.19,5.31.31,7.88.31,3.21,0,9.11-.17,13.67-.45a95.72,95.72,0,0,0,10.27-9.38,80.94,80.94,0,0,0,8.52-9.78,132.9,132.9,0,0,1-58.8.54l0,0-.32-.09c-7.7-1.77-29.12-11.6-30.15-12.21a113.2,113.2,0,0,1-24.76-19.56A171.09,171.09,0,0,1,383,291.66a121.92,121.92,0,0,1-3-16.93c-7.26,5.23-16.8,13-22.25,18.63"/></clipPath><linearGradient id="linear-gradient-13" x1="0" y1="900" x2="1" y2="900" gradientTransform="matrix(134.37, 0, 0, -134.37, 348.09, 121245.86)" xlink:href="#linear-gradient-10"/><clipPath id="clip-path-15"><path class="cls-1" d="M481.72,333.82l-.21.28a128.28,128.28,0,0,1-15.91,17.25c-.83.74-1.75,1.43-2.59,2.15a127.77,127.77,0,0,1-12.87,9.7,125.11,125.11,0,0,1-11.77-8.8c-7.28-.9-18.76-2.59-27.44-5.21a142.78,142.78,0,0,0,25.39,23.58,144.93,144.93,0,0,0,13.6,8.71l.52.28.52-.28a143.28,143.28,0,0,0,40.49-34.1,2.36,2.36,0,0,0,.2-.23,142.76,142.76,0,0,0,14.43-21.45c.59-1.08,1.1-2.2,1.66-3.31a140.13,140.13,0,0,0,11.17-29.48,110.75,110.75,0,0,0-10.22-7.12v0c-1.09-.67-2.2-1.32-3.32-1.95-.21-.13-.45-.24-.67-.36l0,0a126.36,126.36,0,0,1-22.95,50.34"/></clipPath><linearGradient id="linear-gradient-14" x1="0" y1="900" x2="1" y2="900" gradientTransform="matrix(107.98, 0, 0, -107.98, 410.93, 97514.11)" xlink:href="#linear-gradient-10"/><clipPath id="clip-path-16"><path class="cls-1" d="M523,258.59a141.76,141.76,0,0,0-2.44-26.17h45.84c8.42,0,16.28,3.81,20.75,9.8.11.19,9.37,13.87,16.64,24.63l38,56.16,2.41,3.57L617,349.45V419q-5.89,9.53-11.76,19a20.91,20.91,0,0,0-2.78,9.18,24,24,0,0,0,20.41,26,23.51,23.51,0,0,0,21-7.25,23,23,0,0,0,6.41-13.45,22.08,22.08,0,0,0-2.92-14.76c-4-6.51-8.06-13-12.11-19.46V358l20.58-17.31c1.73.26,3.46.55,5.16.92a87.55,87.55,0,0,1,68.55,85.35v39.58a60.08,60.08,0,0,1-60,60H232.08a60.09,60.09,0,0,1-60-60V426.91a87.55,87.55,0,0,1,68.54-85.34c1.57-.35,3.17-.62,4.77-.87L266,358.06v60.37q-6.08,9.7-12.1,19.44A22.1,22.1,0,0,0,251,452.65a23,23,0,0,0,6.4,13.45,23.48,23.48,0,0,0,21,7.25,24.06,24.06,0,0,0,20.43-26,21.2,21.2,0,0,0-2.8-9.18q-5.85-9.54-11.76-19V349.55l-27.33-23,2.23-3.53,50.14-79.52A25.84,25.84,0,0,1,331,232.42h48.47a139.26,139.26,0,0,0-1.3,43.61c0,.21,0,.42.06.63A139.82,139.82,0,0,0,380.77,291c.14.54.31,1.06.43,1.59A175.14,175.14,0,0,0,391.88,323c8.57,5.29,19.77,9.35,25.76,11.33a134.51,134.51,0,0,1-21.9-47.43,185.18,185.18,0,0,1-3-19.08l.16-.07c0-.09,0-.19,0-.28-.22-3.2-.36-6.17-.36-8.92a125.51,125.51,0,0,1,2.78-26.17H504.17a125.89,125.89,0,0,1,2.77,26.17c0,2-.07,5.73-.19,8.85l.09,0c.37.18,9.49,5.17,15.32,8.93.54-5.78.83-13,.83-17.82M331,215.23a43.13,43.13,0,0,0-36.05,18.89l-53.28,84.51H189.58a21.84,21.84,0,1,0-.16,16.81h21a103.86,103.86,0,0,0-54.78,91.47v39.58A76.56,76.56,0,0,0,232.08,543H669.55A76.57,76.57,0,0,0,746,466.49V426.91a103.89,103.89,0,0,0-54.78-91.47h19.33a21.89,21.89,0,1,0-.16-16.81H659.56L618,257.23c-7.12-10.55-16.17-23.92-16.8-24.84a43.41,43.41,0,0,0-34.83-17.16Z"/></clipPath><linearGradient id="linear-gradient-15" x1="0" y1="900" x2="1" y2="900" gradientTransform="matrix(605.04, 0, 0, -605.04, 147.48, 544919.42)" xlink:href="#linear-gradient-10"/></defs><g class="cls-2"><rect class="cls-3" width="900" height="900"/><g class="cls-4"><rect class="cls-5" x="209.93" y="567.34" width="66.4" height="71.99"/></g><g class="cls-6"><rect class="cls-7" x="284.97" y="585.61" width="52.47" height="53.31"/></g><g class="cls-8"><rect class="cls-9" x="348.27" y="585.61" width="27.21" height="52"/></g><g class="cls-10"><rect class="cls-11" x="384.17" y="569.07" width="54.33" height="68.54"/></g><g class="cls-12"><rect class="cls-7" x="448.03" y="585.61" width="53.17" height="53.31"/></g><g class="cls-13"><rect class="cls-7" x="510.08" y="585.61" width="52.09" height="53.31"/></g><g class="cls-14"><rect class="cls-15" x="569.6" y="568.23" width="26.79" height="69.38"/></g><g class="cls-16"><rect class="cls-7" x="601.68" y="585.61" width="53.17" height="53.31"/></g><g class="cls-17"><rect class="cls-9" x="663.21" y="585.61" width="27.21" height="52"/></g><g class="cls-18"><rect class="cls-19" x="387.27" y="254.13" width="164.64" height="98.12"/></g><g class="cls-20"><rect class="cls-21" x="422.63" y="277.32" width="54.75" height="54.75"/></g><g class="cls-22"><rect class="cls-23" x="315.55" y="391.08" width="264.63" height="119.76"/></g><g class="cls-24"><rect class="cls-25" x="348.09" y="274.73" width="134.37" height="80.43"/></g><g class="cls-26"><rect class="cls-27" x="410.93" y="283.48" width="107.98" height="98.28"/></g><g class="cls-28"><rect class="cls-29" x="147.48" y="215.23" width="605.04" height="327.74"/></g></g></svg>