<?xml version="1.0" standalone="no"?>
<!DOCTYPE svg PUBLIC "-//W3C//DTD SVG 20010904//EN"
 "http://www.w3.org/TR/2001/REC-SVG-20010904/DTD/svg10.dtd">
<svg version="1.0" xmlns="http://www.w3.org/2000/svg"
 width="168.000000pt" height="25.000000pt" viewBox="0 0 168.000000 25.000000"
 preserveAspectRatio="xMidYMid meet">

<g transform="translate(0.000000,25.000000) scale(0.100000,-0.100000)"
fill="#000000" stroke="none">
<path d="M67 218 c-8 -13 -27 -58 -42 -100 -36 -102 -32 -108 82 -107 l84 1
46 69 c25 38 48 69 49 69 2 0 4 -11 4 -25 0 -15 -6 -25 -14 -25 -7 0 -21 -11
-30 -25 -16 -24 -16 -25 9 -25 18 0 25 -5 25 -20 0 -15 7 -20 25 -20 24 0 25
3 25 54 0 29 3 81 6 115 7 61 7 61 -19 61 -21 0 -37 -17 -93 -97 -78 -114 -89
-127 -79 -95 6 21 3 22 -39 22 -25 0 -46 1 -46 3 0 1 9 25 19 52 19 49 20 50
65 53 39 3 48 7 56 28 6 14 10 27 10 30 0 2 -29 4 -65 4 -56 0 -66 -3 -78 -22z"/>
<path d="M381 130 c-22 -61 -41 -113 -41 -116 0 -3 10 -4 22 -2 19 2 29 19 53
85 29 81 31 83 64 83 26 0 32 -3 27 -16 -3 -9 -6 -18 -6 -20 0 -2 -11 -4 -25
-4 -36 0 -48 -30 -34 -85 10 -38 15 -45 36 -45 23 0 24 2 18 39 -5 33 -3 39
13 43 22 6 67 111 58 135 -4 9 -26 13 -74 13 l-70 0 -41 -110z"/>
<path d="M577 143 c-19 -54 -38 -106 -42 -116 -6 -13 -2 -17 18 -17 21 0 28 9
52 78 33 91 35 95 67 90 l25 -3 -20 -52 c-15 -41 -24 -53 -41 -53 -15 0 -25
-9 -33 -30 l-11 -30 39 0 c47 0 60 18 98 127 32 94 28 103 -52 103 l-65 0 -35
-97z"/>
<path d="M808 230 c-20 -12 -80 -164 -76 -194 2 -14 11 -22 29 -24 22 -3 28 2
33 24 4 15 3 30 -2 33 -6 4 -2 27 10 59 18 48 22 52 53 52 l33 0 -16 -52 c-10
-30 -24 -53 -34 -56 -9 -2 -21 -17 -27 -33 -9 -27 -9 -29 18 -29 38 0 54 21
87 115 35 102 31 115 -38 115 -29 0 -61 -5 -70 -10z"/>
<path d="M1001 223 c-24 -21 -83 -176 -75 -198 5 -11 22 -15 65 -15 53 0 61 3
68 23 8 20 5 22 -33 27 -45 6 -46 7 -20 78 15 41 17 42 59 42 43 0 65 17 65
49 0 19 -105 13 -129 -6z"/>
<path d="M1151 210 l-10 -30 80 0 c76 0 80 1 89 26 6 14 10 27 10 30 0 2 -36
4 -79 4 -79 0 -79 0 -90 -30z"/>
<path d="M1345 227 c-24 -17 -81 -176 -72 -200 4 -10 17 -17 31 -17 18 0 26 7
31 27 4 16 2 29 -3 31 -6 2 -3 24 7 55 17 49 20 52 55 55 l36 3 -20 -53 c-11
-29 -20 -54 -20 -55 0 -2 -6 -3 -14 -3 -8 0 -19 -14 -25 -30 -9 -27 -8 -30 10
-30 40 0 58 21 89 102 42 111 40 122 -30 126 -35 2 -62 -2 -75 -11z"/>
<path d="M1525 223 c-16 -41 -75 -206 -75 -210 0 -2 10 -3 22 -1 17 2 28 19
51 86 29 81 30 82 64 82 28 0 34 -3 29 -16 -3 -9 -6 -18 -6 -20 0 -2 -11 -4
-25 -4 -30 0 -48 -30 -39 -67 13 -59 15 -63 40 -63 13 0 24 1 24 3 0 1 -4 17
-9 35 -9 30 -8 34 14 42 17 6 28 24 41 63 24 78 18 87 -60 87 -51 0 -65 -3
-71 -17z"/>
<path d="M1166 92 c-31 -82 -32 -84 -4 -80 16 2 27 18 44 63 28 74 29 85 5 85
-15 0 -26 -17 -45 -68z"/>
</g>
</svg>
